<svg width="16" height="30" viewBox="0 0 16 30" fill="none" xmlns="http://www.w3.org/2000/svg">
<path d="M2.06296 0.355617L15.6284 14.0954C15.8667 14.3367 16 14.6604 16 14.9974C16 15.3344 15.8667 15.6581 15.6284 15.8994L2.06296 29.6444C1.95198 29.7569 1.81928 29.8464 1.67271 29.9075C1.52614 29.9685 1.36866 30 1.20956 30C1.05047 30 0.892985 29.9685 0.746411 29.9075C0.599838 29.8464 0.467143 29.7569 0.356159 29.6444C0.127828 29.4136 -6.25405e-07 29.1038 -6.25405e-07 28.7811C-6.25405e-07 28.4585 0.127828 28.1487 0.356159 27.9179L13.1127 14.9974L0.356159 2.07955C0.128612 1.84887 0.0012776 1.53959 0.0012776 1.21758C0.0012776 0.895578 0.128612 0.586298 0.356159 0.355617C0.467143 0.243074 0.599838 0.153623 0.746411 0.0925455C0.892985 0.0314676 1.05047 0 1.20956 0C1.36866 0 1.52614 0.0314676 1.67271 0.0925455C1.81928 0.153623 1.95198 0.243074 2.06296 0.355617Z" fill="#00AFB9"/>
</svg>
