<svg width="43" height="36" viewBox="0 0 43 36" fill="none" xmlns="http://www.w3.org/2000/svg">
<path d="M18.8095 0.405338C19.0665 0.665212 19.2109 1.01748 19.2109 1.38477C19.2109 1.75206 19.0665 2.10433 18.8095 2.36421L4.68547 16.6307L41.6276 16.6307C41.9916 16.6307 42.3407 16.7767 42.598 17.0366C42.8554 17.2966 43 17.6491 43 18.0167C43 18.3843 42.8554 18.7368 42.598 18.9967C42.3407 19.2566 41.9916 19.4027 41.6276 19.4027L4.68547 19.4027L18.8095 33.6691C19.052 33.9319 19.1839 34.2794 19.1777 34.6385C19.1714 34.9975 19.0273 35.3401 18.7759 35.5941C18.5245 35.848 18.1852 35.9934 17.8297 35.9998C17.4742 36.0061 17.1301 35.8728 16.8699 35.628L0.401357 18.9961C0.144355 18.7362 0 18.384 0 18.0167C0 17.6494 0.144355 17.2971 0.401357 17.0372L16.8699 0.405338C17.1272 0.145787 17.476 9.79619e-07 17.8397 9.79619e-07C18.2034 9.79619e-07 18.5522 0.145787 18.8095 0.405338Z" fill="#F6F6F6"/>
</svg>
