<svg width="16" height="32" viewBox="0 0 16 32" fill="none" xmlns="http://www.w3.org/2000/svg">
<path d="M13.937 0.379324L0.371599 15.0351C0.133343 15.2925 0 15.6378 0 15.9972C0 16.3567 0.133343 16.702 0.371599 16.9594L13.937 31.6207C14.048 31.7407 14.1807 31.8361 14.3273 31.9013C14.4739 31.9664 14.6313 32 14.7904 32C14.9495 32 15.107 31.9664 15.2536 31.9013C15.4002 31.8361 15.5329 31.7407 15.6438 31.6207C15.8722 31.3745 16 31.044 16 30.6999C16 30.3557 15.8722 30.0252 15.6438 29.7791L2.8873 15.9972L15.6438 2.21819C15.8714 1.97213 15.9987 1.64223 15.9987 1.29876C15.9987 0.955283 15.8714 0.625384 15.6438 0.379324C15.5329 0.259279 15.4002 0.163865 15.2536 0.0987152C15.107 0.0335655 14.9495 0 14.7904 0C14.6313 0 14.4739 0.0335655 14.3273 0.0987152C14.1807 0.163865 14.048 0.259279 13.937 0.379324Z" fill="#00AFB9"/>
</svg>
