<svg width="72" height="25" viewBox="0 0 72 25" fill="none" xmlns="http://www.w3.org/2000/svg">
<path d="M59.5448 1.33494e-05C56.5688 1.33494e-05 53.8388 1.02951 51.6968 2.74535C49.4799 0.965659 46.7075 -0.00415004 43.8488 1.33494e-05C40.8728 1.33494e-05 38.1428 1.02951 36.0008 2.74535C33.7839 0.965659 31.0115 -0.00415004 28.1528 1.33494e-05C25.1768 1.33494e-05 22.4468 1.02951 20.3048 2.74535C18.4772 1.28283 16.2668 0.360874 13.9297 0.0862798C11.5925 -0.188315 9.2243 0.195695 7.09938 1.19382C4.97446 2.19194 3.17981 3.76333 1.92334 5.72593C0.666865 7.68854 0 9.96203 0 12.283C0 14.604 0.666865 16.8775 1.92334 18.8401C3.17981 20.8027 4.97446 22.3741 7.09938 23.3722C9.2243 24.3703 11.5925 24.7543 13.9297 24.4797C16.2668 24.2051 18.4772 23.2832 20.3048 21.8207C22.4468 23.5365 25.1768 24.566 28.1528 24.566C31.1288 24.566 33.8588 23.5365 36.0008 21.8207C38.1428 23.5365 40.8728 24.566 43.8488 24.566C46.8248 24.566 49.5548 23.5365 51.6968 21.8207C53.245 23.0596 55.0722 23.9139 57.0248 24.3118C58.9773 24.7097 60.9982 24.6396 62.9176 24.1074C64.837 23.5751 66.5988 22.5963 68.0548 21.2532C69.5109 19.91 70.6188 18.2418 71.2852 16.3888C71.9517 14.5357 72.1573 12.552 71.8848 10.6043C71.6123 8.65662 70.8697 6.80189 69.7193 5.19603C68.5689 3.59016 67.0444 2.28008 65.2739 1.37591C63.5034 0.471732 61.5387 -0.000119866 59.5448 1.33494e-05ZM51.6968 17.8033C50.5278 16.1936 49.9004 14.2629 49.9028 12.283C49.9028 10.224 50.5688 8.31885 51.6968 6.76276C52.8248 8.31885 53.4908 10.224 53.4908 12.283C53.4908 14.342 52.8248 16.2472 51.6968 17.8033ZM36.0008 17.8033C34.8318 16.1936 34.2044 14.2629 34.2068 12.283C34.2068 10.224 34.8728 8.31885 36.0008 6.76276C37.1288 8.31885 37.7948 10.224 37.7948 12.283C37.7948 14.342 37.1288 16.2472 36.0008 17.8033ZM20.3048 17.8033C19.1358 16.1936 18.5084 14.2629 18.5108 12.283C18.5108 10.224 19.1768 8.31885 20.3048 6.76276C21.4328 8.31885 22.0988 10.224 22.0988 12.283C22.0988 14.342 21.4328 16.2472 20.3048 17.8033ZM2.81484 12.283C2.81555 10.5089 3.31963 8.77029 4.27006 7.2639C5.2205 5.75751 6.57938 4.5434 8.19305 3.75885C9.80672 2.9743 11.6108 2.65062 13.4013 2.8244C15.1918 2.99818 16.8972 3.66249 18.3248 4.74222C16.6191 6.89572 15.6939 9.55049 15.6968 12.283C15.6968 15.126 16.6808 17.7441 18.3248 19.8238C16.8972 20.9035 15.1918 21.5678 13.4013 21.7416C11.6108 21.9154 9.80672 21.5917 8.19305 20.8072C6.57938 20.0226 5.2205 18.8085 4.27006 17.3021C3.31963 15.7957 2.81555 14.0572 2.81484 12.283ZM22.2848 19.8238C23.9905 17.6703 24.9157 15.0155 24.9128 12.283C24.9128 9.44005 23.9288 6.82193 22.2848 4.74222C23.9668 3.46533 26.0302 2.77357 28.1528 2.77493C30.3608 2.77493 32.3948 3.5086 34.0208 4.74222C32.3143 6.89528 31.389 9.55033 31.3928 12.283C31.3928 15.126 32.3768 17.7441 34.0208 19.8238C32.3389 21.1007 30.2755 21.7925 28.1528 21.7911C26.0299 21.794 23.966 21.1021 22.2848 19.8238ZM37.9808 19.8238C39.6874 17.6707 40.6127 15.0157 40.6088 12.283C40.6088 9.44005 39.6248 6.82193 37.9808 4.73926C39.6068 3.5086 41.6408 2.77197 43.8488 2.77197C46.0568 2.77197 48.0908 3.50564 49.7168 4.73926C48.0103 6.89232 47.085 9.54738 47.0888 12.2801C47.0888 15.123 48.0728 17.7411 49.7168 19.8208C48.0349 21.0977 45.9715 21.7895 43.8488 21.7881C41.7261 21.7933 39.6618 21.1022 37.9808 19.8238ZM59.5448 21.7911C57.4219 21.794 55.358 21.1021 53.6768 19.8238C55.3821 17.6701 56.3073 15.0155 56.3048 12.283C56.3048 9.44005 55.3208 6.82193 53.6768 4.74222C54.8924 3.82165 56.313 3.20007 57.8208 2.92905C59.3286 2.65803 60.8802 2.74536 62.3469 3.18381C63.8137 3.62226 65.1533 4.39919 66.2547 5.45018C67.3561 6.50117 68.1876 7.79594 68.6802 9.22713C69.1728 10.6583 69.3123 12.1847 69.0872 13.6796C68.8621 15.1746 68.2788 16.5951 67.3857 17.8234C66.4926 19.0517 65.3155 20.0523 63.9519 20.7423C62.5883 21.4323 61.0775 21.7919 59.5448 21.7911Z" fill="#393D50"/>
</svg>
