<svg width="72" height="71" viewBox="0 0 72 71" fill="none" xmlns="http://www.w3.org/2000/svg">
<path d="M36 0C16.119 0 0 15.8951 0 35.5C0 55.1049 16.119 71 36 71C55.881 71 72 55.1049 72 35.5C72 15.8951 55.881 0 36 0ZM36 2.3075C54.588 2.3075 69.657 17.1672 69.657 35.5C69.657 53.8298 54.591 68.6895 36 68.6895C17.409 68.6895 2.343 53.8298 2.343 35.5C2.343 17.1702 17.412 2.3075 36 2.3075ZM33.966 4.17125C32.976 4.21267 31.986 4.2955 30.99 4.402L30.669 13.1113C31.3754 12.9935 32.0858 12.9007 32.799 12.8332L33.009 6.95208L32.97 6.54679L33.099 6.93137L35.091 11.3363H36.909L38.901 6.93433L39.021 6.54679L38.991 6.95208L39.201 12.8332C39.897 12.8983 40.62 12.993 41.331 13.1113L41.004 4.402C40.0149 4.29209 39.0224 4.21513 38.028 4.17125L36.069 8.97854L36 9.33354L35.931 8.97854L33.966 4.17125ZM54.054 9.56725L49.425 16.7501C50.01 17.1938 50.781 17.8476 51.276 18.2943L55.635 16.0637L55.911 15.8596L55.704 16.1377L53.448 20.4362C53.937 20.9539 54.642 21.7911 55.038 22.2999L62.328 17.7323C61.8809 17.1619 61.4208 16.6017 60.948 16.0519L56.331 19.0517L56.016 19.3238L56.25 18.9836L58.29 14.9721L56.85 13.5521L52.782 15.5638L52.437 15.7945L52.71 15.481L55.764 10.9281C55.224 10.4784 54.711 10.0672 54.054 9.56725ZM16.5 11.1973C15.42 11.3068 14.586 12.0345 12.321 14.5254C11.5356 15.4031 10.7782 16.3049 10.05 17.2293L16.272 23.0484C18.333 20.8 19.17 19.9658 20.796 18.2766C21.945 17.0785 22.596 15.7028 21.444 14.3805C20.82 13.6645 19.77 13.5077 18.894 13.8627L18.81 13.8923L18.84 13.8154C18.9482 13.4229 18.9367 13.0076 18.8071 12.6215C18.6775 12.2353 18.4354 11.8953 18.111 11.644C17.8855 11.4687 17.6271 11.3392 17.3506 11.2631C17.074 11.1869 16.7849 11.1626 16.5 11.1973ZM16.518 13.0167C16.926 12.9072 17.349 13.1942 17.442 13.6083C17.538 14.0225 17.274 14.413 16.98 14.7384C16.32 15.478 13.887 17.9867 13.887 17.9867L12.681 16.8536C13.932 15.3449 15.264 13.9722 15.867 13.4279C16.0479 13.2419 16.271 13.101 16.518 13.0167ZM36 14.4455C30.7152 14.4432 25.6175 16.3746 21.6938 19.8656C17.77 23.3567 15.2993 28.1592 14.76 33.3434V33.3493C14.421 36.6384 14.8717 39.9599 16.0755 43.0454C17.2794 46.1309 19.2027 48.8938 21.6899 51.1106C24.1771 53.3274 27.1584 54.9359 30.3928 55.806C33.6271 56.6762 37.0238 56.7836 40.308 56.1196C45.122 55.1438 49.4468 52.559 52.5516 48.802C55.6563 45.0451 57.3505 40.3464 57.348 35.5C57.3424 29.9187 55.0914 24.5677 51.089 20.6214C47.0866 16.6752 41.6599 14.4562 36 14.4515V14.4455ZM19.389 15.1615C19.53 15.1615 19.677 15.1999 19.809 15.2887C20.073 15.4632 20.193 15.762 20.127 16.0578C20.049 16.4099 19.752 16.7412 19.512 16.9986L16.377 20.3119L15.117 19.1286C15.117 19.1286 17.478 16.6672 18.252 15.8774C18.558 15.5638 18.756 15.3745 18.966 15.2709C19.0961 15.2043 19.2425 15.1669 19.389 15.1615ZM36 17.2116C38.4363 17.2089 40.8492 17.68 43.1005 18.5982C45.3519 19.5163 47.3975 20.8633 49.1202 22.5621C50.8429 24.2608 52.2089 26.278 53.1399 28.4981C54.0709 30.7182 54.5488 33.0976 54.546 35.5H36V53.7884C33.5637 53.7911 31.1508 53.32 28.8995 52.4018C26.6481 51.4837 24.6025 50.1367 22.8798 48.4379C21.1571 46.7392 19.7911 44.722 18.8601 42.5019C17.9291 40.2818 17.4512 37.9024 17.454 35.5H36V17.2116Z" fill="#393D50"/>
</svg>
