<svg width="72" height="24" viewBox="0 0 72 24" fill="none" xmlns="http://www.w3.org/2000/svg">
<path d="M71.7145 5.01733H47.7595V0.467417C47.7599 0.406175 47.748 0.34546 47.7245 0.288767C47.7011 0.232075 47.6664 0.180523 47.6227 0.137081C47.5789 0.0936379 47.5268 0.0591617 47.4695 0.0356357C47.4121 0.0121097 47.3506 -1.24222e-06 47.2885 0H24.7135C24.6514 -1.24222e-06 24.5899 0.0121097 24.5326 0.0356357C24.4753 0.0591617 24.4232 0.0936379 24.3794 0.137081C24.3356 0.180523 24.301 0.232075 24.2775 0.288767C24.254 0.34546 24.2421 0.406175 24.2425 0.467417V5.01733H7.07354C6.81254 5.01733 6.49454 5.22442 6.36254 5.48475L0.0595357 17.6612C-0.0754643 17.9216 0.0265357 18.1257 0.290536 18.1257H24.2395V22.6815C24.2395 22.936 24.4495 23.146 24.7105 23.146H47.2855C47.5465 23.146 47.7565 22.9389 47.7565 22.6815V18.1257H64.9255C65.1865 18.1257 65.5045 17.9186 65.6395 17.6612L71.9395 5.48475C72.0745 5.22738 71.9725 5.01733 71.7115 5.01733M64.2295 7.96383L60.4975 15.1733H44.8015V20.2261H27.2095V15.1733H7.78454L11.5195 7.96383H27.2155V2.91396H44.8075V7.96383H64.2295Z" fill="#393D50"/>
</svg>
