<svg width="72" height="58" viewBox="0 0 72 58" fill="none" xmlns="http://www.w3.org/2000/svg">
<path d="M71.7071 13.7089C70.7171 4.189 64.2971 2.18621 58.6451 1.27208C55.8071 0.79875 50.7551 0.384583 47.4971 0.26625C44.6591 0.0887498 37.9931 0 35.9921 0C34.0211 0 27.3221 0.0887498 24.4871 0.26625C21.2591 0.384583 16.1771 0.79875 13.3391 1.27208C7.69013 2.21579 1.26113 4.21267 0.277128 13.7089C0.0371282 16.3034 -0.0228719 19.6936 0.00712813 23.3176C0.0971281 29.326 0.607128 33.3937 0.907128 36.2248C1.11713 38.1684 1.92113 43.9756 2.96813 46.9813C4.40213 51.1082 5.71613 52.3152 7.24013 53.5547C10.0511 55.7942 14.6531 56.5012 15.6101 56.6787C20.8091 57.5958 31.3301 57.7674 35.9621 57.7674C40.5941 57.7674 51.1121 57.6195 56.3141 56.6787C57.3011 56.5012 61.9031 55.8208 64.6841 53.5547C66.2081 52.3152 67.5221 51.1082 68.9561 46.9813C70.0061 43.9756 70.8401 38.1684 71.0501 36.2248C71.3501 33.3937 71.8871 29.326 71.9471 23.3176C72.0671 19.6936 71.9771 16.3034 71.7071 13.7089ZM68.1791 29.6839C67.6091 37.2868 66.9251 41.8249 65.9381 45.1264C65.0681 48.0137 64.0271 49.9278 62.4431 51.3153C59.8421 53.6435 56.2541 54.1434 54.1631 54.4393C49.6211 55.1197 41.9981 55.3267 35.9921 55.3267C29.9861 55.3267 22.3631 55.0901 17.8211 54.4393C15.7301 54.1434 12.1421 53.6435 9.54113 51.3153C7.98713 49.9278 6.91313 47.9842 6.07613 45.1235C5.08913 41.8545 4.40213 37.2839 3.83513 29.681C3.50513 25.1162 3.56513 17.6879 4.07513 13.706C4.84913 7.75675 7.84013 4.77771 14.2361 3.65946C17.2241 3.12696 21.2561 2.74237 25.0541 2.56487C28.1021 2.35779 33.1541 2.26904 35.9621 2.29862C38.7701 2.26904 43.8221 2.38737 46.8701 2.56487C50.6951 2.74237 54.7001 3.12696 57.6881 3.65946C64.1141 4.77771 67.1051 7.78633 67.8521 13.7089C68.4491 17.6879 68.5361 25.1162 68.1791 29.6839ZM52.5761 4.8635C50.9321 12.1469 50.2751 15.478 48.9281 20.7498C47.6441 25.8233 46.6271 30.5063 44.9231 32.7754C43.1621 35.074 40.8281 35.5769 39.2441 35.7515C38.4071 35.8402 37.8101 35.8698 36.0461 35.8994C34.969 35.9195 33.8917 35.8701 32.8211 35.7515C31.2371 35.574 28.8761 35.074 27.1451 32.7754C25.4111 30.5063 24.4241 25.8233 23.1401 20.7527C21.7301 15.5076 21.1061 12.144 19.4321 4.86646C19.4321 4.86646 17.7881 4.92562 17.0411 4.98479C16.0541 5.04396 15.2771 5.13271 14.4401 5.25104C15.4691 21.1432 16.5161 38.0264 17.8181 52.969C20.1971 53.264 22.5907 53.4309 24.9881 53.4689C25.9781 49.7237 27.2321 44.5347 28.6091 42.3249C29.7431 40.5262 31.5071 40.3221 32.4941 40.2038C34.0481 39.9967 35.3621 39.9671 35.9891 39.9671C36.5891 39.9375 37.9001 39.9671 39.4841 40.2038C40.4741 40.3517 42.2351 40.5292 43.3691 42.3249C44.7791 44.5347 46.0001 49.7207 46.9871 53.466C46.9871 53.466 48.0611 53.4364 50.4821 53.318C51.7121 53.2648 52.9421 53.1465 54.1601 52.963C55.5341 37.0176 56.5151 21.226 57.5381 5.25104C56.6981 5.13271 55.9241 5.04396 54.9371 4.98479C54.2471 4.92562 52.5761 4.8635 52.5761 4.8635Z" fill="#393D50"/>
</svg>
