<svg width="72" height="37" viewBox="0 0 72 37" fill="none" xmlns="http://www.w3.org/2000/svg">
<path d="M35.997 36.3579C55.878 36.3579 72 28.2195 72 18.1819C72 8.13838 55.878 0 35.997 0C16.122 0 0 8.13838 0 18.1819C0 28.2195 16.122 36.3579 35.997 36.3579ZM42.777 27.4385C42.177 28.8112 41.142 31.74 38.769 32.9115C38.049 33.2635 37.158 33.4262 36.369 33.4588H36C29.358 33.4588 23.172 32.5417 17.994 30.9915L17.796 30.9175C17.316 30.7608 17.076 30.5418 17.076 30.2726C17.076 30.0389 17.205 29.8585 17.373 29.6958L17.7 29.4088C18.9 28.4266 22.494 25.8588 29.274 23.2939C31.653 22.4035 34.632 21.2852 37.749 20.6314C39.573 20.2587 46.356 19.2321 42.777 27.4385ZM60.96 9.11462C61.089 8.89571 61.26 8.70933 61.569 8.69454C61.737 8.67679 61.965 8.71525 62.313 8.93121C66.54 11.4961 69.048 14.7059 69.048 18.176C69.048 24.4417 60.876 29.8318 49.188 32.1837C48.444 32.3316 47.94 32.3257 47.775 32.1393C47.655 32.0269 47.625 31.8258 47.775 31.5773C47.8628 31.4234 47.9674 31.2796 48.087 31.1483C54.447 23.7525 59.295 12.8392 60.672 9.6915C60.777 9.47258 60.876 9.25663 60.96 9.11462ZM29.331 8.88092C29.931 7.51121 30.966 4.5795 33.336 3.41983C34.056 3.06483 34.947 2.89325 35.736 2.87254C35.919 2.86663 36.048 2.87254 36.096 2.87254C42.747 2.87254 48.924 3.77779 54.108 5.33683C54.147 5.35458 54.267 5.396 54.306 5.41079C54.786 5.57054 55.026 5.7865 55.026 6.05571C55.026 6.28942 54.9 6.461 54.732 6.62667C54.6257 6.72549 54.5157 6.82023 54.402 6.91067C53.211 7.90171 49.608 10.4636 42.828 13.0285C40.443 13.9278 37.47 15.0372 34.362 15.688C32.532 16.0726 25.752 17.0873 29.331 8.88092ZM22.8 4.16829C23.55 4.02629 24.045 4.02629 24.228 4.21267C24.333 4.331 24.363 4.52625 24.222 4.77475C24.1323 4.9246 24.0278 5.06532 23.91 5.19483C17.55 12.5995 12.699 23.504 11.316 26.6605C11.2292 26.8571 11.1331 27.0496 11.028 27.2374C10.908 27.4533 10.731 27.6397 10.428 27.6575C10.26 27.6723 10.023 27.6249 9.675 27.4178C5.451 24.853 2.94 21.6461 2.94 18.176C2.94 11.9102 11.112 6.52017 22.8 4.16829Z" fill="#393D50"/>
</svg>
