<svg width="336" height="336" viewBox="0 0 336 336" fill="none" xmlns="http://www.w3.org/2000/svg">
<rect width="336" height="336" fill="#D9D9D9"/>
<path d="M188.8 149.222H147.2V185.778L171.359 161.51C171.601 161.267 171.887 161.075 172.203 160.943C172.519 160.812 172.857 160.744 173.199 160.744C173.54 160.744 173.879 160.812 174.194 160.943C174.51 161.075 174.797 161.267 175.038 161.51L188.8 175.359V149.222ZM142 146.593C142.005 145.907 142.278 145.251 142.761 144.766C143.243 144.28 143.896 144.005 144.579 144H191.421C192.846 144 194 145.162 194 146.593V188.407C193.995 189.093 193.722 189.749 193.239 190.234C192.757 190.72 192.104 190.995 191.421 191H144.579C143.895 190.999 143.239 190.726 142.755 190.24C142.272 189.753 142 189.094 142 188.407V146.593ZM157.6 164.889C156.221 164.889 154.898 164.339 153.923 163.359C152.948 162.38 152.4 161.052 152.4 159.667C152.4 158.282 152.948 156.953 153.923 155.974C154.898 154.995 156.221 154.444 157.6 154.444C158.979 154.444 160.302 154.995 161.277 155.974C162.252 156.953 162.8 158.282 162.8 159.667C162.8 161.052 162.252 162.38 161.277 163.359C160.302 164.339 158.979 164.889 157.6 164.889Z" fill="#F8F8F8"/>
</svg>
