<svg width="72" height="29" viewBox="0 0 72 29" fill="none" xmlns="http://www.w3.org/2000/svg">
<path d="M12.39 0H18.237V15.1289C18.237 17.7323 17.103 23.1904 8.991 23.1904C0.879 23.1933 0 18.108 0 15.2561V12.4635H5.658V15.194C5.658 16.8655 6.792 18.4186 8.928 18.4186C11.067 18.4186 12.387 17.2382 12.387 15.2532L12.39 0ZM25.026 12.8392C25.026 11.1618 25.716 9.798 27.666 9.798C29.679 9.798 30.558 11.286 30.558 12.8362H25.026V12.8392ZM27.291 6.32491C21.945 6.32491 19.554 11.1618 19.554 15.3182C19.554 19.4717 22.26 23.501 27.792 23.501C32.634 23.5631 35.841 20.4628 35.841 18.1701H30.495C30.495 18.1701 29.865 19.6552 27.981 19.6552C26.094 19.6552 25.026 18.602 25.026 16.0608H35.904C35.904 8.06146 31.881 6.32787 27.291 6.32787M42.507 12.8362C42.507 11.1618 43.197 9.798 45.147 9.798C47.16 9.798 48.039 11.286 48.039 12.8362H42.51H42.507ZM44.769 6.32787C39.426 6.32787 37.035 11.1618 37.035 15.3153C37.035 19.4718 39.741 23.501 45.273 23.501C50.115 23.5631 53.322 20.4628 53.322 18.1701H47.976C47.976 18.1701 47.346 19.6552 45.462 19.6552C43.578 19.6552 42.504 18.602 42.504 16.0608H53.382C53.382 8.06146 49.359 6.32787 44.769 6.32787ZM60.102 15.1289C60.168 11.9694 61.425 10.6677 63.123 10.6677C65.889 10.6677 66.393 12.7741 66.393 14.9455C66.393 17.114 66.015 19.9658 63.375 19.9658C60.735 19.9658 60.042 18.2943 60.102 15.1289ZM60.231 28.3379V21.7023C60.456 21.9982 60.585 22.1402 60.984 22.4478C61.614 22.93 62.682 23.7495 65.073 23.7495C69.411 23.7495 71.925 20.0309 71.925 14.9455C71.925 8.37208 67.713 6.51425 65.01 6.51425C62.307 6.51425 61.29 7.75083 60.924 8.18571C60.501 8.68863 60.363 8.97262 60.168 9.38383V6.94617H54.759V28.3379H60.231ZM69.729 25.8588V27.6101H70.041V26.9179H70.287C70.455 26.9179 70.572 26.9386 70.638 26.977C70.749 27.0421 70.803 27.1753 70.803 27.3764V27.5155L70.809 27.5746L70.815 27.5924L70.818 27.6101H71.112L71.1 27.5894C71.0891 27.5159 71.0831 27.4418 71.082 27.3675V27.2374C71.082 27.1486 71.049 27.0599 70.986 26.9652C70.9495 26.9172 70.903 26.8774 70.8498 26.8483C70.7965 26.8193 70.7376 26.8016 70.677 26.7966C70.7679 26.7849 70.8555 26.7557 70.935 26.7108C71.052 26.6368 71.109 26.5215 71.109 26.3647C71.109 26.1457 71.019 25.9978 70.836 25.9209C70.6789 25.8725 70.5143 25.8525 70.35 25.8617L69.729 25.8588ZM70.686 26.1339C70.764 26.1783 70.806 26.2641 70.806 26.3913C70.806 26.5274 70.743 26.6161 70.62 26.6635C70.5243 26.6947 70.4237 26.7087 70.323 26.7049H70.041V26.0688H70.311C70.482 26.0688 70.608 26.0925 70.686 26.1339ZM71.526 27.8705C71.6791 27.7234 71.8001 27.547 71.8816 27.3522C71.9631 27.1574 72.0034 26.9482 72 26.7374C72.0031 26.528 71.9626 26.3203 71.8811 26.1269C71.7996 25.9336 71.6787 25.7588 71.526 25.6132C71.3771 25.463 71.1986 25.3444 71.0016 25.2645C70.8045 25.1846 70.593 25.1453 70.38 25.1488C70.1679 25.1454 69.9573 25.1848 69.7613 25.2647C69.5652 25.3446 69.3878 25.4632 69.24 25.6132C69.0878 25.759 68.9676 25.9339 68.8866 26.1273C68.8055 26.3206 68.7655 26.5283 68.769 26.7374C68.769 27.1812 68.925 27.5598 69.237 27.8705C69.3845 28.0221 69.5622 28.1421 69.7588 28.223C69.9555 28.304 70.1669 28.3441 70.38 28.3408C70.5937 28.3436 70.8057 28.303 71.0029 28.2215C71.2 28.1401 71.3781 28.0196 71.526 27.8675M69.396 25.7671C69.669 25.5008 69.996 25.3647 70.38 25.3647C70.764 25.3647 71.094 25.4979 71.364 25.7671C71.634 26.0333 71.769 26.3587 71.769 26.7374C71.769 27.122 71.634 27.4474 71.367 27.7137C71.2398 27.8448 71.0864 27.9485 70.9165 28.0182C70.7467 28.088 70.564 28.1223 70.38 28.119C70.1967 28.1224 70.0147 28.0885 69.8453 28.0193C69.676 27.95 69.523 27.847 69.396 27.7166C69.2657 27.589 69.163 27.4368 69.0939 27.269C69.0248 27.1012 68.9908 26.9214 68.994 26.7404C68.9909 26.5595 69.0252 26.3799 69.0949 26.2126C69.1645 26.0453 69.265 25.8937 69.396 25.7671Z" fill="#393D50"/>
</svg>
