<svg width="78" height="49" viewBox="0 0 78 49" fill="none" xmlns="http://www.w3.org/2000/svg">
<path d="M39 0C16.9748 0 0 10.35 0 24.456C0 38.562 16.978 48.912 39 48.912C61.022 48.912 78 38.562 78 24.456C78 10.35 61.0252 0 39 0ZM62.8355 11.517C62.8355 14.757 57.2292 17.256 48.2495 18.255C47.4045 10.515 44.9832 5.418 41.8698 3.516C51.4508 4.068 62.8355 7.197 62.8355 11.517ZM39 37.659C35.88 37.659 33.3255 33.159 33.124 24.492C34.9993 24.633 36.959 24.708 39 24.708C41.041 24.708 42.9975 24.633 44.8727 24.492C44.6745 33.162 42.12 37.659 39 37.659ZM39 18.735C37.0825 18.735 35.2463 18.678 33.5075 18.573C34.3558 13.389 36.4975 9.123 39 9.123C41.5025 9.123 43.641 13.389 44.4893 18.573C42.7505 18.675 40.9175 18.735 39 18.735ZM36.1335 3.51C33.0265 5.409 30.589 10.509 29.7505 18.255C20.7708 17.256 15.1613 14.757 15.1613 11.517C15.1613 7.197 26.5492 4.047 36.1335 3.51ZM6.62025 23.496C6.61204 20.075 7.80729 16.744 10.0262 14.004C10.9038 18.645 18.2227 22.647 29.4353 24.114V24.456C29.4353 35.772 32.292 43.065 36.218 45.366C19.6203 44.403 6.62025 34.926 6.62025 23.496ZM41.795 45.366C45.7178 43.065 48.5777 35.772 48.5777 24.456V24.111C59.7805 22.647 67.1158 18.633 67.9868 14.001C70.2086 16.741 71.4052 20.0735 71.396 23.496C71.383 34.926 58.3732 44.403 41.795 45.366Z" fill="#393D50"/>
</svg>
