<svg width="72" height="71" viewBox="0 0 72 71" fill="none" xmlns="http://www.w3.org/2000/svg">
<path d="M36 0C16.08 0 0 15.8567 0 35.5C0 55.1433 16.08 71 36 71C55.92 71 72 55.1433 72 35.5C72 15.8567 55.92 0 36 0ZM36 4.17125C39.6 4.17125 43.08 4.82208 46.29 5.91667L36.39 27.0096C36.27 27.1279 36.27 27.3942 36 27.3942C35.73 27.3942 35.73 27.1279 35.61 27.0096L25.71 5.91667C28.92 4.82208 32.4 4.20083 36 4.20083M20.7 8.10583L32.16 32.4529C32.4 32.9558 32.67 33.1037 33 33.1037H39C39.36 33.1037 39.6 32.9558 39.87 32.4529L51.18 8.10583C55.92 10.7683 60 14.5846 62.88 19.1404L46.8 49.8183C46.68 50.0846 46.5 50.2029 46.41 50.2029C46.17 50.2029 46.17 49.9662 46.02 49.8183L39.87 36.3875C39.6 35.8846 39.36 35.7663 39 35.7663H33C32.67 35.7663 32.4 35.8846 32.13 36.3875L25.98 49.8183C25.83 49.9662 25.86 50.2029 25.59 50.2029C25.32 50.2029 25.32 49.9662 25.2 49.8183L9 19.1404C11.82 14.5846 15.96 10.7683 20.7 8.10583ZM6.18 25.2346L24.69 60.7346C24.93 61.2375 25.2 61.6221 25.86 61.6221C26.49 61.6221 26.73 61.2375 27 60.7346L35.61 41.8308C35.73 41.5942 35.88 41.4167 36 41.4167C36.27 41.4167 36.27 41.7125 36.39 41.8308L45.12 60.7346C45.39 61.2375 45.63 61.6221 46.29 61.6221C46.92 61.6221 47.19 61.2375 47.43 60.7346L66 25.2346C67.11 28.4 67.77 31.8317 67.77 35.5C67.62 52.6287 53.37 66.8288 36 66.8288C18.63 66.8288 4.38 52.6287 4.38 35.5C4.38 31.95 5.01 28.5479 6.18 25.2346Z" fill="#393D50"/>
</svg>
